<svg width="102" height="22" viewBox="0 0 102 22" fill="none" xmlns="http://www.w3.org/2000/svg">
    <path d="M11.117 13.4179H4.7214L3.1855 17.953H0.476562L6.5344 1.17419H9.34889L15.4067 17.953H12.6516L11.117 13.4179ZM5.3838 11.3252H10.4534L7.95424 3.96497H7.88425L5.3838 11.3252Z" fill="white"/>
    <path d="M28.492 11.8372C28.492 15.6387 26.4573 18.0811 23.3869 18.0811C22.609 18.1218 21.8355 17.9426 21.1548 17.5641C20.4741 17.1856 19.9137 16.623 19.5379 15.9408H19.4798V22H16.9688V5.71997H19.3993V7.75465H19.4455C19.8386 7.07573 20.4084 6.51609 21.0943 6.13527C21.7802 5.75444 22.5565 5.56669 23.3406 5.59198C26.4455 5.59199 28.492 8.04626 28.492 11.8372ZM25.9111 11.8372C25.9111 9.3605 24.6311 7.73222 22.6783 7.73222C20.7597 7.73222 19.4692 9.3948 19.4692 11.8372C19.4692 14.302 20.7597 15.9527 22.6783 15.9527C24.6311 15.9527 25.911 14.3363 25.911 11.8372H25.9111Z" fill="white"/>
    <path d="M41.9536 11.8372C41.9536 15.6387 39.9183 18.0811 36.8478 18.0811C36.07 18.1218 35.2964 17.9426 34.6157 17.5641C33.935 17.1856 33.3747 16.623 32.9988 15.9408H32.9407V22H30.4297V5.71997H32.8602V7.75465H32.9064C33.2995 7.07573 33.8694 6.51609 34.5552 6.13527C35.2411 5.75444 36.0174 5.56669 36.8016 5.59198C39.9064 5.59199 41.9536 8.04626 41.9536 11.8372ZM39.372 11.8372C39.372 9.3605 38.0921 7.73222 36.1392 7.73222C34.2207 7.73222 32.9302 9.3948 32.9302 11.8372C32.9302 14.302 34.2207 15.9527 36.1392 15.9527C38.0921 15.9527 39.372 14.3363 39.372 11.8372Z" fill="white"/>
    <path d="M50.8519 13.278C51.0379 14.9419 52.6544 16.0344 54.8632 16.0344C56.9797 16.0344 58.5024 14.9419 58.5024 13.4416C58.5024 12.1392 57.584 11.3594 55.4095 10.825L53.2349 10.3012C50.1539 9.55696 48.7235 8.11606 48.7235 5.77789C48.7235 2.8829 51.2464 0.894409 54.8276 0.894409C58.3744 0.894409 60.8049 2.8829 60.8867 5.77789H58.3519C58.2002 4.10344 56.816 3.09271 54.7932 3.09271C52.7704 3.09271 51.3863 4.11533 51.3863 5.60373C51.3863 6.78996 52.2704 7.48798 54.433 8.02232L56.2816 8.47624C59.7242 9.29037 61.1532 10.6732 61.1532 13.1275C61.1532 16.2666 58.6541 18.2326 54.6771 18.2326C50.9561 18.2326 48.4437 16.3128 48.2814 13.2779L50.8519 13.278Z" fill="white"/>
    <path d="M66.575 2.82507V5.72007H68.9013V7.70856H66.575V14.4525C66.575 15.5002 67.0408 15.9884 68.0634 15.9884C68.3396 15.9836 68.6153 15.9642 68.8894 15.9303V17.907C68.4297 17.9929 67.9623 18.0318 67.4947 18.0231C65.018 18.0231 64.0521 17.0928 64.0521 14.7204V7.70856H62.2734V5.72007H64.0521V2.82507H66.575Z" fill="white"/>
    <path d="M70.25 11.8371C70.25 7.98811 72.5169 5.56946 76.0519 5.56946C79.5987 5.56946 81.855 7.98806 81.855 11.8371C81.855 15.6967 79.6106 18.1047 76.0519 18.1047C72.4945 18.1047 70.25 15.6966 70.25 11.8371ZM79.2965 11.8371C79.2965 9.19677 78.0865 7.63844 76.0518 7.63844C74.0172 7.63844 72.8072 9.20865 72.8072 11.8371C72.8072 14.488 74.0172 16.0344 76.0518 16.0344C78.0865 16.0344 79.2965 14.488 79.2965 11.8371H79.2965Z" fill="white"/>
    <path d="M83.9219 5.7201H86.3168V7.80226H86.3749C86.5369 7.15196 86.9179 6.57726 87.4537 6.17477C87.9896 5.77227 88.6477 5.56652 89.3174 5.59209C89.6067 5.59108 89.8953 5.62251 90.1777 5.68578V8.0345C89.8124 7.92287 89.4313 7.87161 89.0495 7.88276C88.6847 7.86796 88.321 7.93228 87.9834 8.0713C87.6458 8.21031 87.3424 8.42074 87.0938 8.68812C86.8452 8.95551 86.6574 9.27352 86.5433 9.62032C86.4293 9.96713 86.3916 10.3345 86.4329 10.6973V17.9532H83.9219L83.9219 5.7201Z" fill="white"/>
    <path d="M101.754 14.36C101.416 16.5807 99.2533 18.1047 96.4863 18.1047C92.9276 18.1047 90.7188 15.7204 90.7188 11.8952C90.7188 8.05804 92.9395 5.56946 96.3807 5.56946C99.7653 5.56946 101.894 7.89442 101.894 11.6035V12.4639H93.2535V12.6156C93.2136 13.0658 93.27 13.5194 93.4189 13.9461C93.5677 14.3729 93.8057 14.7631 94.117 15.0908C94.4282 15.4185 94.8056 15.6763 95.2241 15.8469C95.6427 16.0176 96.0927 16.0972 96.5444 16.0806C97.1377 16.1362 97.7332 15.9988 98.2422 15.6888C98.7512 15.3788 99.1466 14.9127 99.3694 14.36L101.754 14.36ZM93.2654 10.7089H99.3813C99.4038 10.3041 99.3425 9.89902 99.201 9.51906C99.0596 9.1391 98.8411 8.79247 98.5594 8.50093C98.2776 8.2094 97.9387 7.97924 97.5638 7.82492C97.1888 7.67059 96.7861 7.59542 96.3807 7.60413C95.9718 7.60169 95.5665 7.68026 95.1881 7.83529C94.8097 7.99033 94.4658 8.21877 94.1761 8.50742C93.8865 8.79608 93.6569 9.13924 93.5006 9.51709C93.3443 9.89495 93.2643 10.3 93.2654 10.7089V10.7089Z" fill="white"/>
</svg>
