<svg width="120" height="24" viewBox="0 0 120 24" fill="none" xmlns="http://www.w3.org/2000/svg">
    <path d="M38.3517 6.63131C35.0502 6.63131 32.3594 9.15139 32.3594 12.6257C32.3594 16.0774 35.0502 18.62 38.3517 18.62C41.6532 18.62 44.344 16.0774 44.344 12.6257C44.344 9.15139 41.6532 6.63131 38.3517 6.63131ZM38.3517 16.2592C36.5423 16.2592 34.9814 14.761 34.9814 12.6257C34.9814 10.4678 36.5423 8.99212 38.3517 8.99212C40.161 8.99212 41.7205 10.4678 41.7205 12.6257C41.7205 14.7596 40.161 16.2592 38.3517 16.2592ZM25.2778 6.63131C21.9763 6.63131 19.2855 9.15139 19.2855 12.6257C19.2855 16.0774 21.9763 18.62 25.2778 18.62C28.5792 18.62 31.2701 16.0774 31.2701 12.6257C31.2715 9.15139 28.5792 6.63131 25.2778 6.63131ZM25.2778 16.2592C23.4684 16.2592 21.909 14.761 21.909 12.6257C21.909 10.4678 23.4698 8.99212 25.2778 8.99212C27.0871 8.99212 28.6466 10.4678 28.6466 12.6257C28.648 14.7596 27.0871 16.2592 25.2778 16.2592ZM9.72779 8.47063V11.0133H15.7889C15.6078 12.4439 15.1334 13.4882 14.4091 14.2155C13.5276 15.1007 12.1477 16.0774 9.72779 16.0774C5.9968 16.0774 3.07995 13.057 3.07995 9.31066C3.07995 5.56436 5.9968 2.54392 9.72779 2.54392C11.7407 2.54392 13.2103 3.33885 14.2954 4.3607L16.0823 2.56647C14.5677 1.11334 12.5548 -0.00012207 9.72779 -0.00012207C4.61698 -0.00012207 0.320312 4.17747 0.320312 9.30925C0.320312 14.441 4.61698 18.6186 9.72779 18.6186C12.486 18.6186 14.5677 17.7109 16.196 16.0069C17.8692 14.3269 18.3899 11.9646 18.3899 10.0577C18.3899 9.46711 18.345 8.92165 18.2538 8.46781H9.72779V8.47063ZM73.3258 10.4453C72.8289 9.10488 71.313 6.6299 68.215 6.6299C65.1396 6.6299 62.5849 9.05978 62.5849 12.6243C62.5849 15.9844 65.1171 18.6186 68.5098 18.6186C71.2456 18.6186 72.8289 16.9386 73.4845 15.9618L71.4491 14.5989C70.7711 15.5982 69.8433 16.2564 68.5098 16.2564C67.1749 16.2564 66.226 15.6433 65.6154 14.4396L73.5982 11.1246L73.3258 10.4453ZM65.1845 12.4439C65.1171 10.1281 66.9714 8.94702 68.3049 8.94702C69.345 8.94702 70.2265 9.46852 70.5213 10.2183L65.1845 12.4439ZM58.6939 18.2564H61.3173V0.636946H58.6939V18.2564ZM54.3972 7.97028H54.3073C53.7192 7.26697 52.5892 6.6299 51.1645 6.6299C48.1789 6.6299 45.4431 9.26415 45.4431 12.6468C45.4431 16.0069 48.1789 18.6186 51.1645 18.6186C52.5892 18.6186 53.7192 17.983 54.3073 17.2557H54.3972V18.1183C54.3972 20.4114 53.176 21.6376 51.208 21.6376C49.6022 21.6376 48.607 20.4791 48.1999 19.5038L45.9161 20.4579C46.5717 22.0478 48.3136 23.9999 51.208 23.9999C54.2835 23.9999 56.8845 22.1831 56.8845 17.756V6.99354H54.3972V7.97028ZM51.3905 16.2592C49.5812 16.2592 48.0666 14.7384 48.0666 12.6482C48.0666 10.5369 49.5812 8.99212 51.3905 8.99212C53.1774 8.99212 54.5783 10.5355 54.5783 12.6482C54.5783 14.737 53.1774 16.2592 51.3905 16.2592ZM85.6137 0.636946H79.3378V18.2564H81.9557V11.5813H85.6123C88.5151 11.5813 91.3688 9.47134 91.3688 6.10981C91.3688 2.74829 88.5165 0.636946 85.6137 0.636946ZM85.6811 9.12884H81.9557V3.08938H85.6811C87.6392 3.08938 88.7509 4.71728 88.7509 6.10981C88.7509 7.47415 87.6392 9.12884 85.6811 9.12884ZM101.868 6.59889C99.972 6.59889 98.0082 7.43751 97.1955 9.29656L99.5214 10.2719C100.018 9.29656 100.943 8.97944 101.915 8.97944C103.269 8.97944 104.646 9.79551 104.669 11.2458V11.4276C104.194 11.1556 103.178 10.7469 101.937 10.7469C99.4315 10.7469 96.8796 12.1295 96.8796 14.7145C96.8796 17.0725 98.9346 18.5904 101.237 18.5904C102.998 18.5904 103.968 17.7969 104.577 16.8681H104.667V18.2282H107.195V11.4727C107.195 8.34378 104.871 6.59889 101.868 6.59889ZM101.551 16.255C100.693 16.255 99.4961 15.8237 99.4961 14.7596C99.4961 13.3995 100.987 12.878 102.273 12.878C103.424 12.878 103.965 13.1274 104.666 13.4671C104.464 15.0992 103.064 16.255 101.551 16.255ZM116.406 6.98367L113.404 14.6229H113.314L110.199 6.98367H107.378L112.051 17.6602L109.386 23.5996H112.118L119.32 6.98367H116.406ZM92.8146 18.2564H95.4338V0.636946H92.8146V18.2564Z" fill="white"/>
</svg>
