<svg width="252" height="196" viewBox="0 0 252 196" fill="none" xmlns="http://www.w3.org/2000/svg">
    <g clip-path="url(#clip0_317_2139)">
        <path d="M244.258 44.9966H7.73629V154.046H244.258V44.9966Z" fill="#0F1C24"/>
        <path fill-rule="evenodd" clip-rule="evenodd" d="M10.7351 48.3892H240.816V151.203H10.7351V48.3892ZM184.544 89.1456C184.544 85.8033 185.343 83.2092 186.94 81.4134C188.538 79.6175 190.935 78.7196 194.13 78.7196C197.326 78.7196 199.723 79.6175 201.32 81.4134C202.918 83.2092 203.717 85.7534 203.717 89.1456V90.742H197.576V88.6967C197.576 87.2001 197.276 86.1525 196.727 85.5539C196.178 84.9552 195.379 84.6559 194.33 84.6559C193.331 84.6559 192.533 84.9552 191.933 85.5539C191.384 86.1525 191.085 87.25 191.085 88.6967C191.085 90.1433 191.384 91.3905 192.033 92.4879C192.632 93.5854 193.431 94.5831 194.38 95.531C195.329 96.4788 196.327 97.4765 197.426 98.4243C198.524 99.3721 199.523 100.47 200.472 101.567C201.42 102.714 202.219 104.011 202.868 105.458C203.467 106.905 203.817 108.601 203.817 110.596C203.817 113.939 202.968 116.533 201.37 118.329C199.723 120.125 197.326 121.022 194.08 121.022C190.885 121.022 188.488 120.125 186.841 118.329C185.193 116.533 184.394 113.989 184.394 110.596V107.753H190.535V110.995C190.535 112.492 190.835 113.54 191.434 114.138C192.033 114.737 192.832 115.036 193.881 115.036C194.879 115.036 195.728 114.737 196.327 114.138C196.927 113.54 197.226 112.492 197.226 110.995C197.226 109.599 196.926 108.352 196.277 107.254C195.628 106.157 194.879 105.159 193.881 104.211C192.932 103.263 191.933 102.266 190.835 101.318C189.736 100.37 188.738 99.2724 187.789 98.1749C186.841 97.0275 186.092 95.7305 185.442 94.2838C184.793 92.8372 184.544 91.141 184.544 89.1456ZM173.309 85.4541V79.2184H179.551V84.8056L176.705 91.3406H174.058L175.756 85.4042H173.309V85.4541ZM156.932 96.6284H165.87V102.565H156.932V114.687H168.166V120.623H150.441V79.2683H168.166V85.1548H156.932V96.6284ZM138.058 79.2184H144.549V120.573H138.058V79.2184ZM118.186 120.573H111.695V79.2184H118.186V96.9278H125.576V79.2184H132.216V120.573H125.576V102.864H118.186V120.573ZM106.652 105.159V110.646C106.652 113.989 105.803 116.583 104.205 118.379C102.558 120.174 100.161 121.072 96.9154 121.072C93.7198 121.072 91.3232 120.174 89.6755 118.379C88.0277 116.583 87.2289 114.038 87.2289 110.646V89.1456C87.2289 85.8033 88.0777 83.2092 89.6755 81.4134C91.3232 79.6175 93.7198 78.7196 96.9154 78.7196C100.111 78.7196 102.508 79.6175 104.205 81.4134C105.853 83.2092 106.652 85.7534 106.652 89.1456V93.1365H100.51V88.6967C100.51 87.2001 100.211 86.1525 99.6117 85.5539C99.0125 84.9552 98.1637 84.6559 97.1651 84.6559C96.1165 84.6559 95.3176 84.9552 94.7184 85.5539C94.1193 86.1525 93.8197 87.25 93.8197 88.6967V111.045C93.8197 112.542 94.1193 113.59 94.7184 114.188C95.3176 114.787 96.1165 115.086 97.1651 115.086C98.1637 115.086 99.0125 114.787 99.6117 114.188C100.211 113.59 100.51 112.542 100.51 111.045V105.159H106.652ZM75.3953 79.2184H81.8863V120.573H75.3953V79.2184ZM57.0208 85.1049V97.8257H59.5673C60.8155 97.8257 61.7642 97.4765 62.4632 96.8779C63.1623 96.2792 63.5118 95.1319 63.5118 93.4358V89.3452C63.5118 87.8486 63.2122 86.7511 62.7129 86.1026C62.1637 85.4541 61.3648 85.1049 60.1664 85.1049H57.0208ZM64.111 120.573C64.061 120.274 63.9612 120.075 63.8613 119.825C63.8114 119.576 63.7115 119.276 63.6616 118.927C63.6117 118.578 63.5617 118.129 63.5617 117.58C63.5617 117.032 63.5118 116.333 63.5118 115.535V109.05C63.5118 107.104 63.1623 105.757 62.5132 104.959C61.8141 104.161 60.7656 103.762 59.2677 103.762H57.0208V120.623H50.5298V79.2683H60.3662C63.7614 79.2683 66.208 80.0665 67.706 81.6129C69.2039 83.2093 70.0028 85.5539 70.0028 88.7465V91.9891C70.0028 96.2792 68.5548 99.0728 65.7087 100.37C67.3565 101.068 68.5049 102.116 69.104 103.662C69.7032 105.159 70.0028 107.005 70.0028 109.2V115.585C70.0028 116.583 70.0527 117.53 70.1026 118.279C70.2025 119.077 70.4022 119.825 70.7018 120.623H64.111V120.573ZM15.7781 52.8789H234.924V145.915H15.7781V52.8789ZM5.84189 36.9155H10.785C10.9847 39.6093 13.4813 41.7045 16.577 41.7045C19.6727 41.7045 22.1692 39.6093 22.3689 36.9155H27.7614C27.9612 39.6093 30.5076 41.7045 33.6033 41.7045C36.6491 41.7045 39.1956 39.6093 39.3953 36.9155H44.7878C44.9875 39.6093 47.534 41.7045 50.5798 41.7045C53.6755 41.7045 56.172 39.6093 56.4216 36.9155H61.8142C62.0139 39.6093 64.5104 41.7045 67.6061 41.7045C70.7018 41.7045 73.1983 39.6093 73.3981 36.9155H78.7906C78.9903 39.6093 81.4868 41.7045 84.5825 41.7045C87.6782 41.7045 90.1748 39.6093 90.3745 36.9155H95.767C95.9667 39.6093 98.4632 41.7045 101.559 41.7045C104.655 41.7045 107.151 39.6093 107.351 36.9155H112.743C112.943 39.6093 115.49 41.7045 118.585 41.7045C121.631 41.7045 124.178 39.6093 124.377 36.9155H129.77C129.969 39.6093 132.516 41.7045 135.562 41.7045C138.657 41.7045 141.154 39.6093 141.404 36.9155H146.796C146.996 39.6093 149.492 41.7045 152.588 41.7045C155.684 41.7045 158.18 39.6093 158.38 36.9155H163.773C163.972 39.6093 166.469 41.7045 169.564 41.7045C172.66 41.7045 175.157 39.6093 175.356 36.9155H180.749C180.949 39.6093 183.445 41.7045 186.541 41.7045C189.587 41.7045 192.133 39.6093 192.333 36.9155H197.725C197.925 39.6093 200.472 41.7045 203.567 41.7045C206.613 41.7045 209.16 39.6093 209.359 36.9155H214.752C214.951 39.6093 217.498 41.7045 220.544 41.7045C223.639 41.7045 226.136 39.6093 226.336 36.9155H231.728C231.928 39.6093 234.424 41.7045 237.52 41.7045C240.616 41.7045 243.112 39.6093 243.312 36.9155H248.155C248.305 38.9608 249.803 40.7068 251.9 41.3553V46.4437C249.404 46.8926 247.556 49.2871 247.556 52.1805C247.556 55.1237 249.454 57.5182 251.9 57.9173V64.4523C249.404 64.9013 247.556 67.2958 247.556 70.1891C247.556 73.0825 249.454 75.5269 251.9 75.926V82.4111C249.404 82.8601 247.556 85.2546 247.556 88.1479C247.556 91.0912 249.454 93.4857 251.9 93.8847V100.37C249.404 100.819 247.556 103.213 247.556 106.107C247.556 109.05 249.454 111.444 251.9 111.844V118.379C249.404 118.827 247.556 121.222 247.556 124.115C247.556 127.009 249.454 129.453 251.9 129.852V136.337C249.404 136.786 247.556 139.181 247.556 142.074C247.556 145.017 249.454 147.412 251.9 147.811V157.239C249.753 157.938 248.205 159.734 248.105 161.879H243.312C243.212 159.135 240.666 156.89 237.47 156.89C234.275 156.89 231.728 159.085 231.678 161.879H226.286C226.186 159.135 223.639 156.89 220.444 156.89C217.298 156.89 214.752 159.085 214.652 161.879H209.259C209.16 159.135 206.613 156.89 203.467 156.89C200.322 156.89 197.725 159.085 197.626 161.879H192.233C192.133 159.135 189.587 156.89 186.441 156.89C183.295 156.89 180.699 159.085 180.599 161.879H175.257C175.157 159.135 172.61 156.89 169.415 156.89C166.269 156.89 163.673 159.085 163.573 161.879H158.23C158.13 159.135 155.584 156.89 152.388 156.89C149.193 156.89 146.646 159.085 146.596 161.879H141.204C141.104 159.135 138.558 156.89 135.362 156.89C132.216 156.89 129.67 159.085 129.57 161.879H124.178C124.078 159.135 121.531 156.89 118.386 156.89C115.24 156.89 112.644 159.085 112.544 161.879H107.151C107.101 159.135 104.505 156.89 101.359 156.89C98.2136 156.89 95.6172 159.085 95.5173 161.879H90.1748C90.0749 159.135 87.5284 156.89 84.3329 156.89C81.1373 156.89 78.5909 159.085 78.491 161.879H73.3981C73.2982 159.135 70.7517 156.89 67.5562 156.89C64.4105 156.89 61.8142 159.085 61.7642 161.879H56.3717C56.2718 159.135 53.7254 156.89 50.5298 156.89C47.3842 156.89 44.8377 159.085 44.7379 161.879H39.3953C39.2954 159.135 36.749 156.89 33.6033 156.89C30.4577 156.89 27.8613 159.085 27.7614 161.879H22.3689C22.319 159.135 19.7226 156.89 16.577 156.89C13.4313 156.89 10.835 159.085 10.7351 161.879H5.84189C5.74202 159.135 3.19556 156.89 0 156.89V147.861C2.84605 147.861 5.14286 145.267 5.14286 142.024C5.14286 138.782 2.84605 136.437 0 136.437V130.052C2.84605 130.052 5.14286 127.458 5.14286 124.265C5.14286 121.022 2.84605 118.428 0 118.428V112.043C2.84605 112.043 5.14286 109.449 5.14286 106.206C5.14286 103.014 2.84605 100.42 0 100.42V94.0344C2.84605 94.0344 5.14286 91.4404 5.14286 88.1978C5.14286 84.9552 2.84605 82.4111 0 82.4111V76.0257C2.84605 76.0257 5.14286 73.4317 5.14286 70.239C5.14286 66.9965 2.84605 64.4024 0 64.4024V58.0171C2.84605 58.0171 5.14286 55.423 5.14286 52.1805C5.14286 48.9878 2.84605 46.3938 0 46.3938V41.7045C3.0957 41.7045 5.59223 39.6093 5.84189 36.9155Z" fill="#FFC428"/>
        <path d="M243.359 8.38076V12.8206H241.012V8.38076L236.069 0.199542H238.565L242.26 6.33545L246.005 0.199542H248.302L243.359 8.38076ZM222.288 2.14508H218.094V0.149656H228.829V2.14508H224.635V12.8206H222.288V2.14508ZM204.962 13.0201C204.013 13.0201 203.065 12.8705 202.116 12.5711C201.217 12.2718 200.468 11.9226 199.969 11.4737L200.768 9.67778C201.267 10.0769 201.916 10.4261 202.665 10.6755C203.414 10.9249 204.163 11.0746 204.912 11.0746C205.861 11.0746 206.56 10.9249 207.059 10.6256C207.508 10.3263 207.758 9.92721 207.758 9.42835C207.758 9.07916 207.658 8.77984 207.359 8.53042C207.109 8.28099 206.759 8.13133 206.36 7.98168C205.961 7.83202 205.411 7.68236 204.712 7.53271C203.764 7.28328 202.965 7.08374 202.366 6.83431C201.766 6.58488 201.267 6.23568 200.818 5.73683C200.368 5.23797 200.169 4.58946 200.169 3.74141C200.169 3.04301 200.368 2.44439 200.768 1.84576C201.167 1.29702 201.716 0.848053 202.465 0.498855C203.264 0.149656 204.163 0 205.262 0C206.06 0 206.809 0.099771 207.558 0.299313C208.307 0.498855 208.956 0.748282 209.506 1.14737L208.757 2.94324C208.207 2.59404 207.608 2.3945 207.009 2.19496C206.41 1.99542 205.811 1.94553 205.262 1.94553C204.313 1.94553 203.614 2.09519 203.164 2.3945C202.715 2.69382 202.465 3.14278 202.465 3.64164C202.465 3.99084 202.615 4.29015 202.865 4.48969C203.115 4.73912 203.464 4.93866 203.814 5.03843C204.213 5.18809 204.762 5.33775 205.461 5.4874C206.41 5.68694 207.159 5.93637 207.758 6.1858C208.357 6.43523 208.906 6.78442 209.306 7.28328C209.755 7.73225 209.955 8.43064 209.955 9.22881C209.955 9.92721 209.755 10.5757 209.406 11.1245C209.006 11.6732 208.457 12.1222 207.708 12.4714C207.009 12.8705 206.06 13.0201 204.962 13.0201ZM187.436 8.08145L185.04 2.54416L182.643 8.08145H187.436ZM188.235 9.87732H181.894L180.646 12.8206H178.249L183.941 0.199542H186.288L191.98 12.8206H189.483L188.235 9.87732ZM164.868 2.14508H160.673V0.149656H171.409V2.14508H167.214V12.8206H164.868V2.14508ZM133.961 0.199542V12.8206H132.013L125.023 4.24027V12.8206H122.676V0.199542H124.624L131.614 8.77984V0.199542H133.961ZM94.3656 0.199542V12.8206H92.0188V7.38305H85.4779V12.8206H83.1312V0.199542H85.4779V5.38763H92.0188V0.199542H94.3656ZM68.2019 13.0201C67.2532 13.0201 66.3045 12.8705 65.3559 12.5711C64.4571 12.2718 63.7081 11.9226 63.2088 11.4737L64.0077 9.67778C64.507 10.0769 65.1561 10.4261 65.9051 10.6755C66.6541 10.9249 67.403 11.0746 68.152 11.0746C69.1007 11.0746 69.7997 10.9249 70.2491 10.6256C70.6984 10.3263 70.9481 9.92721 70.9481 9.42835C70.9481 9.07916 70.7983 8.77984 70.5487 8.53042C70.299 8.28099 69.9495 8.13133 69.6 7.98168C69.2005 7.83202 68.6513 7.68236 67.9523 7.53271C67.0036 7.28328 66.2047 7.08374 65.6055 6.83431C65.0063 6.58488 64.507 6.23568 64.0577 5.73683C63.6083 5.23797 63.4086 4.58946 63.4086 3.74141C63.4086 3.04301 63.6083 2.44439 63.9578 1.84576C64.3573 1.29702 64.9065 0.848053 65.6554 0.498855C66.4044 0.149656 67.3531 0 68.4516 0C69.2505 0 69.9994 0.099771 70.7484 0.299313C71.4973 0.498855 72.1464 0.748282 72.6957 1.14737L71.9467 2.94324C71.3975 2.59404 70.7983 2.3945 70.2491 2.19496C69.6499 1.99542 69.0507 1.94553 68.5015 1.94553C67.6027 1.94553 66.9037 2.09519 66.4543 2.3945C66.005 2.69382 65.7553 3.14278 65.7553 3.64164C65.7553 3.99084 65.8552 4.29015 66.1548 4.48969C66.4044 4.73912 66.7539 4.93866 67.1534 5.03843C67.5528 5.18809 68.102 5.33775 68.8011 5.4874C69.7498 5.68694 70.4987 5.93637 71.0979 6.1858C71.6971 6.43523 72.2463 6.78442 72.6457 7.28328C73.0951 7.73225 73.2948 8.43064 73.2948 9.22881C73.2948 9.92721 73.0951 10.5757 72.7456 11.1245C72.3462 11.6732 71.7969 12.1222 71.048 12.4714C70.2491 12.8705 69.3004 13.0201 68.2019 13.0201ZM54.1215 10.875V12.8206H44.6346V0.199542H53.9217V2.14508H47.0313V5.43752H53.1229V7.38305H47.0313V10.875H54.1215ZM32.152 4.68923C32.152 3.84118 31.9023 3.24256 31.3531 2.84347C30.8039 2.3945 30.0549 2.19496 29.0063 2.19496H26.2602V7.23339H29.0063C30.005 7.23339 30.8039 6.98397 31.3531 6.58488C31.9023 6.08603 32.152 5.4874 32.152 4.68923ZM32.2518 12.8206L29.6554 9.12904C29.5556 9.12904 29.4058 9.12904 29.1561 9.12904H26.3101V12.8206H23.9634V0.199542H29.1561C30.2546 0.199542 31.2033 0.349198 32.0521 0.748282C32.851 1.09748 33.5001 1.59634 33.8996 2.29473C34.3489 2.94324 34.5486 3.74141 34.5486 4.68923C34.5486 5.63706 34.299 6.43523 33.8496 7.13362C33.4002 7.83202 32.7012 8.33087 31.8524 8.68007L34.7484 12.8206H32.2518ZM7.28651 2.14508V5.98626H13.3781V7.98168H7.28651V12.8206H4.93977V0.199542H14.1769V2.14508H7.28651Z" fill="white"/>
        <path d="M110.38 6.72862C110.494 5.57715 109.652 4.55126 108.499 4.43724C107.347 4.32322 106.32 5.16424 106.206 6.31571C106.092 7.46718 106.934 8.49307 108.086 8.60709C109.239 8.72111 110.265 7.88009 110.38 6.72862Z" fill="white"/>
        <path fill-rule="evenodd" clip-rule="evenodd" d="M148.343 4.23999C149.492 4.23999 150.441 5.13793 150.441 6.33518C150.441 7.53243 149.492 8.43037 148.343 8.43037C147.195 8.43037 146.246 7.53243 146.246 6.33518C146.246 5.13793 147.145 4.23999 148.343 4.23999Z" fill="white"/>
        <path d="M240.968 191.411L239.27 193.107V195.801H237.323V185.225H239.27V190.662L244.463 185.225H246.66L242.216 189.914L246.91 195.751H244.663L240.968 191.411ZM223.293 194.254C223.992 194.254 224.591 194.104 225.19 193.755C225.739 193.456 226.189 193.007 226.538 192.458C226.838 191.91 226.987 191.261 226.987 190.563C226.987 189.864 226.838 189.216 226.538 188.667C226.189 188.118 225.739 187.669 225.19 187.37C224.641 187.021 223.992 186.921 223.293 186.921C222.594 186.921 221.944 187.071 221.395 187.37C220.846 187.669 220.397 188.118 220.047 188.667C219.748 189.216 219.598 189.864 219.598 190.563C219.598 191.261 219.748 191.91 220.047 192.458C220.397 193.007 220.846 193.456 221.395 193.755C221.944 194.104 222.594 194.254 223.293 194.254ZM223.293 196C222.194 196 221.245 195.751 220.347 195.302C219.498 194.853 218.799 194.204 218.3 193.356C217.8 192.508 217.551 191.61 217.551 190.563C217.551 189.565 217.8 188.617 218.3 187.769C218.799 186.921 219.498 186.272 220.347 185.824C221.196 185.375 222.194 185.125 223.293 185.125C224.341 185.125 225.34 185.325 226.189 185.824C227.037 186.272 227.736 186.971 228.236 187.769C228.735 188.567 228.985 189.515 228.985 190.563C228.985 191.61 228.735 192.558 228.236 193.356C227.736 194.154 227.037 194.803 226.189 195.302C225.29 195.751 224.341 196 223.293 196ZM210.56 185.275L207.065 195.85H204.968L202.372 188.068L199.725 195.85H197.628L194.133 185.275H196.18L198.777 193.306L201.523 185.275H203.32L205.967 193.356L208.663 185.275H210.56ZM165.273 185.275H167.27V195.85H165.273V185.275ZM156.186 185.275V195.85H154.189V191.311H148.746V195.85H146.749V185.275H148.746V189.615H154.189V185.275H156.186ZM134.266 196C133.467 196 132.669 195.9 131.92 195.651C131.171 195.401 130.571 195.102 130.122 194.753L130.821 193.207C131.27 193.556 131.77 193.855 132.419 194.055C133.068 194.254 133.667 194.404 134.316 194.404C135.115 194.404 135.664 194.254 136.064 194.005C136.463 193.755 136.663 193.406 136.663 193.007C136.663 192.708 136.563 192.458 136.313 192.259C136.114 192.059 135.814 191.91 135.465 191.81C135.115 191.71 134.666 191.56 134.117 191.411C133.318 191.211 132.669 191.012 132.169 190.862C131.67 190.662 131.27 190.363 130.871 189.964C130.522 189.515 130.322 189.016 130.322 188.268C130.322 187.719 130.472 187.17 130.771 186.672C131.121 186.223 131.57 185.824 132.219 185.524C132.868 185.275 133.617 185.125 134.566 185.125C135.215 185.125 135.864 185.175 136.463 185.375C137.112 185.524 137.662 185.774 138.111 186.073L137.512 187.619C137.062 187.32 136.563 187.17 136.064 187.021C135.565 186.871 135.065 186.821 134.616 186.821C133.817 186.821 133.268 186.921 132.918 187.22C132.519 187.47 132.369 187.819 132.369 188.268C132.369 188.567 132.469 188.817 132.669 189.016C132.918 189.216 133.168 189.365 133.517 189.465C133.867 189.565 134.316 189.715 134.865 189.864C135.664 190.064 136.313 190.263 136.813 190.413C137.312 190.613 137.761 190.912 138.111 191.311C138.46 191.71 138.61 192.259 138.61 192.957C138.61 193.556 138.46 194.104 138.161 194.553C137.861 195.002 137.362 195.401 136.713 195.701C136.014 195.85 135.215 196 134.266 196ZM117.39 196C115.942 196 114.793 195.551 113.945 194.753C113.096 193.955 112.696 192.758 112.696 191.261V185.275H114.644V191.161C114.644 193.256 115.542 194.254 117.34 194.254C119.137 194.254 120.036 193.207 120.036 191.161V185.275H121.983V191.261C121.983 192.807 121.534 193.955 120.735 194.753C119.986 195.551 118.838 196 117.39 196ZM100.363 196C99.5146 196 98.7656 195.9 97.9667 195.651C97.2178 195.401 96.6186 195.102 96.1692 194.753L96.8683 193.207C97.3176 193.556 97.8169 193.855 98.466 194.055C99.1152 194.254 99.7642 194.404 100.363 194.404C101.162 194.404 101.712 194.254 102.111 194.005C102.51 193.755 102.71 193.406 102.71 193.007C102.71 192.708 102.61 192.458 102.361 192.259C102.161 192.059 101.861 191.91 101.512 191.81C101.162 191.71 100.713 191.56 100.164 191.411C99.3149 191.211 98.7157 191.012 98.2164 190.862C97.7171 190.662 97.2677 190.363 96.9182 189.964C96.5687 189.515 96.4189 189.016 96.4189 188.268C96.4189 187.719 96.5687 187.17 96.8683 186.672C97.1679 186.223 97.6672 185.824 98.3163 185.524C98.9654 185.275 99.7143 185.125 100.663 185.125C101.312 185.125 101.961 185.175 102.56 185.375C103.16 185.524 103.709 185.774 104.158 186.073L103.559 187.619C103.11 187.32 102.61 187.17 102.111 187.021C101.612 186.871 101.112 186.821 100.613 186.821C99.8641 186.821 99.2649 186.921 98.9154 187.22C98.516 187.47 98.3662 187.819 98.3662 188.268C98.3662 188.567 98.466 188.817 98.7157 189.016C98.9154 189.216 99.215 189.365 99.5645 189.465C99.914 189.565 100.363 189.715 100.913 189.864C101.712 190.064 102.361 190.263 102.86 190.413C103.359 190.613 103.809 190.912 104.158 191.311C104.508 191.71 104.707 192.259 104.707 192.957C104.707 193.556 104.558 194.104 104.258 194.553C103.908 195.002 103.459 195.401 102.81 195.701C102.061 195.85 101.262 196 100.363 196ZM71.1041 191.86L69.1068 187.22L67.1096 191.86H71.1041ZM71.7532 193.406H66.4605L65.412 195.85H63.4147L68.1582 185.275H70.1054L74.8988 195.85H72.8516L71.7532 193.406ZM56.8738 194.154V195.801H47.8364V194.553L54.0777 186.921H47.9362V185.275H56.6242V186.572L50.4328 194.154H56.8738ZM40.5964 194.154V195.801H31.559V194.553L37.8003 186.921H31.6589V185.275H40.3967V186.572L34.1554 194.154H40.5964ZM21.2733 185.275H23.2206V195.85H21.2733V185.275ZM8.49105 191.111C9.33987 191.111 9.98897 190.962 10.4383 190.563C10.8877 190.213 11.1374 189.715 11.1374 189.016C11.1374 188.368 10.8877 187.819 10.4383 187.47C9.98897 187.121 9.33987 186.921 8.49105 186.921H6.19424V191.111H8.49105ZM8.59091 185.275C9.48966 185.275 10.2886 185.424 10.9876 185.724C11.6866 186.023 12.1859 186.472 12.5354 187.021C12.9349 187.569 13.0847 188.268 13.0847 189.016C13.0847 189.814 12.8849 190.463 12.5354 191.012C12.1859 191.56 11.6866 192.009 10.9876 192.309C10.2886 192.608 9.53959 192.758 8.59091 192.758H6.19424V195.801H4.19701V185.225H8.59091V185.275Z" fill="white"/>
        <path fill-rule="evenodd" clip-rule="evenodd" d="M85.9326 188.817C86.6815 188.817 87.2807 189.415 87.2807 190.163C87.2807 190.912 86.6815 191.51 85.9326 191.51C85.1836 191.51 84.5844 190.912 84.5844 190.163C84.5844 189.415 85.1836 188.817 85.9326 188.817Z" fill="white"/>
        <path fill-rule="evenodd" clip-rule="evenodd" d="M181.448 188.817C182.197 188.817 182.797 189.415 182.797 190.164C182.797 190.912 182.197 191.51 181.448 191.51C180.7 191.51 180.1 190.912 180.1 190.164C180.1 189.415 180.7 188.817 181.448 188.817Z" fill="white"/>
    </g>
    <defs>
        <clipPath id="clip0_317_2139">
            <rect width="252" height="196" fill="white"/>
        </clipPath>
    </defs>
</svg>
