<svg width="51" height="31" viewBox="0 0 51 31" fill="none" xmlns="http://www.w3.org/2000/svg">
    <path d="M50.4248 15.0876C50.4248 23.3664 43.6934 30.1752 35.3372 30.1752C27.0584 30.1752 20.2496 23.3664 20.2496 15.0876C20.2496 6.80876 26.981 0 35.2598 0C43.6934 0 50.4248 6.80876 50.4248 15.0876Z" fill="#F9B50B"/>
    <path d="M30.2306 15.165C30.2306 14.0817 30.0759 12.9985 29.9211 11.9927H20.6365C20.7138 11.4511 20.8686 10.9869 21.0233 10.3679H29.3021C29.1474 9.82627 28.9153 9.28467 28.6832 8.74306H21.6423C21.8744 8.20146 22.1839 7.73722 22.4934 7.11825H27.8321C27.5226 6.57664 27.1357 6.03503 26.6715 5.49343H23.7313C24.1956 4.95182 24.6598 4.48759 25.2788 3.94598C22.6481 1.47007 19.089 0 15.143 0C6.94157 0.232117 0.132812 6.80876 0.132812 15.0876C0.132812 23.3664 6.8642 30.1752 15.2204 30.1752C19.1664 30.1752 22.6481 28.6277 25.3562 26.2292C25.8978 25.765 26.362 25.2234 26.9036 24.6044H23.8087C23.4219 24.1401 23.035 23.5985 22.7255 23.0569H27.9868C28.2963 22.5927 28.6058 22.0511 28.8379 21.4321H21.797C21.5649 20.9679 21.3328 20.4263 21.1781 19.8073H29.4569C29.9211 18.4146 30.2306 16.8671 30.2306 15.165Z" fill="#C8191C"/>
    <path d="M20.5594 18.9562L20.7915 17.5635C20.7141 17.5635 20.5594 17.6408 20.4046 17.6408C19.863 17.6408 19.7857 17.3313 19.863 17.1766L20.3273 14.3912H21.1784L21.4105 12.8438H20.6368L20.7915 11.9153H19.1667C19.1667 11.9153 18.2382 17.1766 18.2382 17.7956C18.2382 18.724 18.7798 19.1883 19.5535 19.1883C20.0178 19.1883 20.4046 19.0335 20.5594 18.9562Z" fill="white"/>
    <path d="M21.1016 16.4029C21.1016 18.6467 22.649 19.1883 23.887 19.1883C25.0475 19.1883 25.5892 18.9562 25.5892 18.9562L25.8986 17.4088C25.8986 17.4088 25.0475 17.7956 24.1965 17.7956C22.4169 17.7956 22.7264 16.4803 22.7264 16.4803H25.976C25.976 16.4803 26.2081 15.4745 26.2081 15.0102C26.2081 14.0044 25.6665 12.6891 23.887 12.6891C22.3395 12.6117 21.1016 14.3913 21.1016 16.4029ZM23.887 14.0818C24.7381 14.0818 24.5833 15.0876 24.5833 15.165H22.8038C22.8811 15.0876 23.0359 14.0818 23.887 14.0818Z" fill="white"/>
    <path d="M34.0235 18.9562L34.333 17.1766C34.333 17.1766 33.5593 17.5635 32.9403 17.5635C31.8571 17.5635 31.3155 16.7124 31.3155 15.7066C31.3155 13.7723 32.2439 12.7664 33.4045 12.7664C34.1782 12.7664 34.8746 13.2307 34.8746 13.2307L35.1067 11.5285C35.1067 11.5285 34.1782 11.1416 33.2498 11.1416C31.3928 11.1416 29.6133 12.7664 29.6133 15.7839C29.6133 17.7956 30.5417 19.1109 32.4761 19.1109C33.1724 19.1883 34.0235 18.9562 34.0235 18.9562Z" fill="white"/>
    <path d="M11.8144 12.6117C10.7312 12.6117 9.88009 12.9212 9.88009 12.9212L9.64797 14.3139C9.64797 14.3139 10.3443 14.0044 11.4275 14.0044C11.9691 14.0044 12.4334 14.0818 12.4334 14.546C12.4334 14.8555 12.356 14.9329 12.356 14.9329H11.6596C10.2669 14.9329 8.79688 15.4745 8.79688 17.3314C8.79688 18.8015 9.72534 19.111 10.3443 19.111C11.4275 19.111 11.9691 18.4146 12.0465 18.4146L11.9691 19.0336H13.2845L13.9034 14.6234C13.9034 12.6891 12.356 12.6117 11.8144 12.6117ZM12.1239 16.1708C12.1239 16.4029 11.9691 17.7183 11.0407 17.7183C10.5764 17.7183 10.4217 17.3314 10.4217 17.0993C10.4217 16.7124 10.6538 16.1708 11.8918 16.1708C12.0465 16.1708 12.1239 16.1708 12.1239 16.1708Z" fill="white"/>
    <path d="M15.4531 19.1109C15.84 19.1109 17.8517 19.1883 17.8517 17.0219C17.8517 15.0102 15.9174 15.3971 15.9174 14.6234C15.9174 14.2365 16.2268 14.0817 16.7684 14.0817C17.0006 14.0817 17.8517 14.1591 17.8517 14.1591L18.0838 12.689C18.0838 12.689 17.5422 12.5343 16.5363 12.5343C15.3757 12.5343 14.1378 12.9985 14.1378 14.6234C14.1378 16.4803 16.1495 16.3255 16.1495 17.0219C16.1495 17.4861 15.6079 17.5635 15.221 17.5635C14.5247 17.5635 13.7509 17.3314 13.7509 17.3314L13.5188 18.8015C13.6736 18.9562 14.1378 19.1109 15.4531 19.1109Z" fill="white"/>
    <path d="M47.3306 11.3738L47.0211 13.5402C47.0211 13.5402 46.4021 12.7665 45.4737 12.7665C44.0036 12.7665 42.7656 14.546 42.7656 16.6351C42.7656 17.9504 43.3846 19.2657 44.7773 19.2657C45.7058 19.2657 46.3247 18.6468 46.3247 18.6468L46.2474 19.1884H47.8722L49.0328 11.5285L47.3306 11.3738ZM46.5569 15.5519C46.5569 16.403 46.17 17.5636 45.2415 17.5636C44.6999 17.5636 44.3904 17.0993 44.3904 16.2482C44.3904 14.9329 44.9321 14.1592 45.7058 14.1592C46.2474 14.2366 46.5569 14.6234 46.5569 15.5519Z" fill="white"/>
    <path d="M3.07479 19.0336L4.00326 13.3081L4.158 19.0336H5.24121L7.33026 13.3081L6.47917 19.0336H8.18136L9.49668 11.3738H6.86603L5.24121 16.0935L5.16384 11.3738H2.84267L1.52734 19.0336H3.07479Z" fill="white"/>
    <path d="M27.8303 19.0335C28.2946 16.4029 28.3719 14.2364 29.5325 14.6233C29.6873 13.6175 29.9194 13.1532 30.0741 12.7664H29.7646C29.0683 12.7664 28.4493 13.6948 28.4493 13.6948L28.6041 12.8437H27.0566L26.0508 19.0335H27.8303Z" fill="white"/>
    <path d="M37.7363 12.6117C36.6531 12.6117 35.802 12.9212 35.802 12.9212L35.5698 14.3139C35.5698 14.3139 36.2662 14.0044 37.3494 14.0044C37.891 14.0044 38.3552 14.0818 38.3552 14.546C38.3552 14.8555 38.2779 14.9329 38.2779 14.9329H37.5815C36.1888 14.9329 34.7188 15.4745 34.7188 17.3314C34.7188 18.8015 35.6472 19.111 36.2662 19.111C37.3494 19.111 37.891 18.4146 37.9684 18.4146L37.891 19.0336H39.3611L39.9801 14.6234C39.9801 12.6891 38.2779 12.6117 37.7363 12.6117ZM38.1231 16.1708C38.1231 16.4029 37.9684 17.7183 37.0399 17.7183C36.5757 17.7183 36.4209 17.3314 36.4209 17.0993C36.4209 16.7124 36.6531 16.1708 37.891 16.1708C38.0458 16.1708 38.0458 16.1708 38.1231 16.1708Z" fill="white"/>
    <path d="M41.2171 19.0335C41.6813 16.4029 41.7587 14.2364 42.9193 14.6233C43.074 13.6175 43.3061 13.1532 43.4609 12.7664H43.1514C42.455 12.7664 41.836 13.6948 41.836 13.6948L41.9908 12.8437H40.4433L39.4375 19.0335H41.2171Z" fill="white"/>
</svg>
