<svg width="30" height="30" viewBox="0 0 30 30" fill="none" xmlns="http://www.w3.org/2000/svg">
    <path fill-rule="evenodd" clip-rule="evenodd" d="M2.105 2.105C0 4.21 0 7.599 0 14.375V15.625C0 22.4 0 25.79 2.105 27.895C4.21 30 7.599 30 14.375 30H15.625C22.4 30 25.79 30 27.895 27.895C30 25.79 30 22.401 30 15.625V14.375C30 7.6 30 4.21 27.895 2.105C25.79 0 22.401 0 15.625 0H14.375C7.6 0 4.21 0 2.105 2.105ZM5.93799 9.375H8.12499C8.68399 9.375 8.89399 9.62 9.10399 10.226C10.174 13.342 11.978 16.066 12.719 16.066C12.998 16.066 13.125 15.938 13.125 15.231V12.01C13.0749 11.0931 12.7545 10.6964 12.5173 10.4027C12.3708 10.2213 12.256 10.0792 12.256 9.878C12.256 9.633 12.465 9.375 12.812 9.375H16.25C16.714 9.375 16.875 9.623 16.875 10.179V14.513C16.875 14.976 17.076 15.139 17.215 15.139C17.493 15.139 17.725 14.976 18.235 14.466C19.811 12.705 20.923 9.994 20.923 9.994C21.062 9.669 21.319 9.375 21.875 9.375H24.062C24.724 9.375 24.864 9.716 24.724 10.179C24.446 11.454 21.781 15.208 21.781 15.208C21.549 15.579 21.456 15.764 21.781 16.181C21.8957 16.3417 22.1404 16.5815 22.4201 16.8557C22.7063 17.1362 23.0291 17.4526 23.287 17.757C24.227 18.814 24.935 19.706 25.132 20.32C25.313 20.937 25 21.25 24.375 21.25H22.187C21.6012 21.25 21.3065 20.922 20.6691 20.2125C20.399 19.9119 20.0674 19.5427 19.626 19.101C18.327 17.85 17.772 17.688 17.447 17.688C17.007 17.688 16.875 17.813 16.875 18.438V20.4C16.875 20.937 16.703 21.25 15.312 21.25C12.995 21.25 10.448 19.843 8.64099 17.247C5.92899 13.447 5.18799 10.573 5.18799 9.994C5.18799 9.669 5.31299 9.375 5.93799 9.375Z" fill="white"/>
</svg>
