<svg width="257" height="44" viewBox="0 0 257 44" fill="none" xmlns="http://www.w3.org/2000/svg">
    <g clip-path="url(#clip0_317_2177)">
        <path d="M15.8328 38.4553H21.4622V5.72363H13.3699C5.10167 5.72363 0.879598 10.0163 0.879598 16.2765C0.879598 21.2846 3.16655 24.3253 7.38862 27.3659L0 38.4553H6.15719L14.2495 26.1139L11.4348 24.1464C7.91638 21.8212 6.3331 19.8537 6.3331 15.9188C6.3331 12.3415 8.79598 10.0163 13.3699 10.0163H15.8328V38.4553ZM124.199 38.9919C126.838 38.9919 128.597 38.4553 129.829 37.561V32.9106C128.421 33.9838 126.838 34.5204 124.375 34.5204C120.505 34.5204 118.746 31.4797 118.746 26.4716C118.746 21.2846 120.681 18.6017 124.375 18.6017C126.486 18.6017 128.597 19.3171 129.653 20.0326V15.3822C128.773 14.6667 126.662 14.309 124.023 14.309C116.987 14.309 113.292 19.496 113.292 26.6505C113.292 34.5204 116.811 38.9919 124.199 38.9919ZM89.719 36.8456V32.1952C87.9598 33.4472 85.1451 34.3415 82.5063 34.3415C78.4601 34.3415 76.8768 32.374 76.7009 28.4391H90.0708V25.3984C90.0708 17.1708 86.5524 13.9513 80.923 13.9513C74.2381 13.9513 70.8956 19.1383 70.8956 26.2927C70.8956 34.5204 74.9417 38.6342 81.9785 38.6342C85.4969 38.9919 87.9598 38.0976 89.719 36.8456ZM39.0541 14.6667V24.1464H31.6655V14.6667H26.212V38.4553H31.6655V28.6179H39.0541V38.4553H44.5076V14.6667H39.0541ZM69.4882 33.9838H67.0254V14.6667H50.8408V16.6342C50.8408 22.3578 50.4889 29.87 48.5538 33.9838H46.7946V43.8212H51.8963V38.4553H64.3866V43.8212H69.4882V33.9838ZM107.311 38.4553H113.644L104.848 25.5773L112.589 14.6667H106.959L99.2186 25.5773V14.6667H93.7651V38.4553H99.2186V26.8293L107.311 38.4553ZM80.7471 18.7805C83.5618 18.7805 84.2655 21.1057 84.2655 24.1464V24.683H76.525C76.7009 20.748 78.1083 18.7805 80.7471 18.7805ZM61.5718 33.9838H53.8314C55.4147 30.4066 55.7665 23.9675 55.7665 19.8537V19.1383H61.5718V33.9838Z" fill="white"/>
        <path d="M192.452 5.72351V38.6341H210.747V33.9837H198.081V24.1463H208.636V19.6747H198.081V10.1951H210.571V5.72351H192.452Z" fill="white"/>
        <path d="M236.084 33.9837H233.621V14.6666H217.436V16.6341C217.436 22.3577 217.084 29.8699 215.149 33.9837H213.39V43.8211H218.492V38.4552H230.982V43.8211H236.084V33.9837ZM228.167 33.9837H220.427C222.01 30.4064 222.362 23.9674 222.362 19.8536V19.1382H228.167V33.9837Z" fill="white"/>
        <path d="M256.315 22.3577C256.315 16.6341 253.5 14.4878 247.519 14.4878C243.825 14.4878 241.01 15.7398 239.251 16.6341V21.2845C240.658 20.2114 244.001 18.9593 246.815 18.9593C249.454 18.9593 250.686 19.8536 250.686 22.5366V23.7886H249.806C241.362 23.7886 237.668 26.6504 237.668 31.4797C237.668 36.3089 240.482 38.9919 244.88 38.9919C248.047 38.9919 249.454 37.9187 250.51 36.8455H250.686C250.686 37.3821 250.862 38.2764 251.038 38.813H256.491C256.315 36.8455 256.139 34.878 256.139 33.0894V22.3577H256.315ZM250.862 32.9106C250.158 33.9837 248.927 34.878 246.991 34.878C244.704 34.878 243.473 33.4471 243.473 31.3008C243.473 28.439 245.408 27.5447 250.158 27.5447H250.862V32.9106Z" fill="white"/>
        <mask id="mask0_317_2177" style="mask-type:alpha" maskUnits="userSpaceOnUse" x="139" y="-1" width="48" height="47">
            <path d="M186.649 22.5366C186.649 35.4146 176.094 45.7886 163.076 45.7886C150.058 45.7886 139.503 35.4146 139.503 22.5366C139.503 9.65853 150.058 -0.715454 163.076 -0.715454C176.094 -0.715454 186.649 9.65853 186.649 22.5366Z" fill="white"/>
        </mask>
        <g mask="url(#mask0_317_2177)">
            <path d="M176.972 33.8049C173.454 37.0244 168.88 38.813 163.954 38.813C153.399 38.813 145.658 30.5854 145.658 21.1057C145.658 12.1626 152.695 5.00813 161.315 5.00813C169.408 5.00813 175.389 11.4471 175.389 18.4228C175.389 24.8618 170.287 30.2276 164.13 30.2276C158.501 30.2276 154.454 25.9349 154.454 21.1057C154.454 16.9919 157.621 13.5935 161.315 13.5935C164.658 13.5935 166.769 16.0976 166.769 18.2439C166.769 20.2114 165.362 21.4634 164.13 21.4634C163.602 21.4634 163.602 21.2845 163.25 21.2845C163.602 20.748 163.778 20.0325 163.778 19.3171C163.602 17.8862 162.371 16.9919 160.964 17.1707C159.732 17.3496 159.028 18.065 158.677 18.7805C158.325 19.4959 157.973 20.2114 157.973 21.1057C157.973 24.5041 160.964 26.6504 163.954 26.6504C168.352 26.6504 171.519 22.8943 171.519 18.4228C171.519 13.0569 166.945 8.58536 161.139 8.58536C154.454 8.58536 149.177 14.3089 149.177 21.1057C149.177 28.7967 155.686 35.2358 163.778 35.2358C172.926 35.2358 179.963 27.5447 179.963 18.4228C179.963 8.58536 171.871 0 161.139 0C149.705 0 140.557 9.65853 140.557 21.1057C140.557 33.4471 150.76 43.8211 163.778 43.8211C170.111 43.8211 175.741 41.4959 180.139 37.561L176.972 33.8049Z" fill="#FFC428"/>
        </g>
    </g>
    <defs>
        <clipPath id="clip0_317_2177">
            <rect width="256.667" height="44" fill="white"/>
        </clipPath>
    </defs>
</svg>
