<svg width="56" height="23" viewBox="0 0 56 23" fill="none" xmlns="http://www.w3.org/2000/svg">
    <path d="M26.4394 11.453V17.8034H24.4107V2.12056H29.7911C30.4333 2.10724 31.0719 2.22035 31.6698 2.45338C32.2678 2.68641 32.8134 3.03473 33.2751 3.47825C33.7415 3.89484 34.1127 4.40575 34.3637 4.97663C34.6147 5.54751 34.7398 6.16514 34.7305 6.78801C34.7438 7.41421 34.6207 8.03588 34.3695 8.61039C34.1183 9.18491 33.745 9.6987 33.2751 10.1165C32.3343 11.0075 31.1729 11.4525 29.7911 11.4517H26.4394V11.453ZM26.4394 4.05136V9.52592H29.8415C30.2145 9.53689 30.5856 9.47045 30.9313 9.33082C31.2769 9.1912 31.5894 8.98147 31.8488 8.71506C32.1067 8.46596 32.3118 8.16803 32.4519 7.83886C32.5919 7.50969 32.6641 7.15598 32.6641 6.79865C32.6641 6.44131 32.5919 6.0876 32.4519 5.75844C32.3118 5.42927 32.1067 5.13133 31.8488 4.88224C31.5927 4.61021 31.2813 4.39534 30.9352 4.25188C30.5891 4.10842 30.2163 4.03964 29.8415 4.05011H26.4394V4.05136Z" fill="#5F6368"/>
    <path d="M39.403 6.7229C40.9025 6.7229 42.0861 7.12082 42.9538 7.91667C43.8216 8.71251 44.255 9.80367 44.2542 11.1901V17.8034H42.3137V16.3143H42.2255C41.3855 17.5406 40.2683 18.1538 38.8738 18.1538C37.6835 18.1538 36.6876 17.8034 35.8862 17.1027C35.5016 16.781 35.1942 16.3782 34.9862 15.9237C34.7783 15.4691 34.6751 14.9741 34.6841 14.4749C34.6841 13.3645 35.1067 12.4815 35.9518 11.8258C36.7968 11.1701 37.925 10.8414 39.3362 10.8398C40.5408 10.8398 41.5329 11.0587 42.3125 11.4967V11.0362C42.3148 10.6959 42.2408 10.3593 42.0958 10.0509C41.9509 9.74247 41.7387 9.46995 41.4745 9.25308C40.9381 8.77242 40.2389 8.51016 39.5164 8.51856C38.3832 8.51856 37.4865 8.99323 36.8262 9.94257L35.0395 8.82513C36.0223 7.42364 37.4768 6.7229 39.403 6.7229ZM36.7783 14.5187C36.777 14.7751 36.8373 15.0281 36.9544 15.2566C37.0714 15.4852 37.2418 15.6826 37.4512 15.8326C37.8999 16.1831 38.4568 16.3687 39.0275 16.3581C39.8836 16.3567 40.7042 16.0183 41.3095 15.4171C41.9815 14.789 42.3175 14.0519 42.3175 13.206C41.685 12.7055 40.8029 12.4552 39.6714 12.4552C38.8473 12.4552 38.1602 12.6525 37.61 13.0471C37.0543 13.4475 36.7783 13.9343 36.7783 14.5187Z" fill="#5F6368"/>
    <path d="M55.3951 7.07336L48.6211 22.5335H46.5269L49.0407 17.124L44.5864 7.07336H46.7915L50.0109 14.7815H50.055L53.1862 7.07336H55.3951Z" fill="#5F6368"/>
    <path d="M18.2393 10.084C18.2401 9.47006 18.1878 8.85716 18.0831 8.25208H9.52734V11.722H14.4277C14.3274 12.2762 14.1152 12.8045 13.8037 13.275C13.4923 13.7456 13.0882 14.1486 12.6157 14.4599V16.7123H15.5403C17.2527 15.1444 18.2393 12.8257 18.2393 10.084Z" fill="#4285F4"/>
    <path d="M9.52856 18.8884C11.9768 18.8884 14.0383 18.09 15.5415 16.7136L12.6169 14.4612C11.8029 15.0093 10.7546 15.3221 9.52856 15.3221C7.16219 15.3221 5.15367 13.7379 4.43545 11.6031H1.42267V13.9244C2.17778 15.4165 3.33565 16.6709 4.76702 17.5475C6.19838 18.4241 7.84691 18.8883 9.52856 18.8884Z" fill="#34A853"/>
    <path d="M4.43585 11.6031C4.05615 10.4845 4.05615 9.2731 4.43585 8.15446V5.83325H1.42307C0.787854 7.08853 0.457031 8.47393 0.457031 9.87879C0.457031 11.2837 0.787854 12.6691 1.42307 13.9243L4.43585 11.6031Z" fill="#FFC428"/>
    <path d="M9.52856 4.43553C10.8224 4.41454 12.0725 4.89999 13.0088 5.78696L15.5982 3.21548C13.9563 1.68395 11.781 0.843117 9.52856 0.869243C7.84691 0.86932 6.19838 1.33355 4.76702 2.21012C3.33565 3.08668 2.17778 4.34108 1.42267 5.83326L4.43545 8.15447C5.15367 6.01971 7.16219 4.43553 9.52856 4.43553Z" fill="#EA4335"/>
</svg>
