<svg width="42" height="13" viewBox="0 0 42 13" fill="none" xmlns="http://www.w3.org/2000/svg">
    <path d="M37.7435 0.284668H29.7742C30.2384 2.91532 32.7917 5.39124 35.5771 5.39124H41.9217C41.999 5.15912 41.999 4.77226 41.999 4.54014C41.999 2.21897 40.0647 0.284668 37.7435 0.284668Z" fill="url(#paint0_linear_317_2200)"/>
    <path d="M30.4727 5.85547V12.2774H34.3413V8.87298H37.7456C39.6026 8.87298 41.2274 7.55766 41.769 5.85547H30.4727Z" fill="#4FAD50"/>
    <path d="M16.8555 0.284668V12.2H20.2599C20.2599 12.2 21.1109 12.2 21.5752 11.3489C23.8963 6.78394 24.5927 5.39124 24.5927 5.39124H25.0569V12.2H28.9255V0.284668H25.5212C25.5212 0.284668 24.6701 0.362045 24.2058 1.13577C22.2715 5.08175 21.1883 7.09343 21.1883 7.09343H20.7241V0.284668H16.8555Z" fill="#4FAD50"/>
    <path d="M0.605469 12.2774V0.362061H4.47408C4.47408 0.362061 5.5573 0.362058 6.17628 2.06425C7.72372 6.55184 7.87848 7.17082 7.87848 7.17082C7.87848 7.17082 8.18795 6.0876 9.58065 2.06425C10.1996 0.362058 11.2829 0.362061 11.2829 0.362061H15.1515V12.2774H11.2829V5.85549H10.8186L8.6522 12.2774H6.95L4.78359 5.85549H4.31935V12.2774H0.605469Z" fill="#4FAD50"/>
    <defs>
        <linearGradient id="paint0_linear_317_2200" x1="29.7604" y1="2.87455" x2="41.9716" y2="2.87455" gradientUnits="userSpaceOnUse">
            <stop stop-color="#27B1E6"/>
            <stop offset="1" stop-color="#148ACA"/>
        </linearGradient>
    </defs>
</svg>
