<svg width="53" height="18" viewBox="0 0 53 18" fill="none" xmlns="http://www.w3.org/2000/svg">
    <path d="M49.3638 1.19543H46.0368C45.0309 1.19543 44.2572 1.50492 43.793 2.51076L37.4485 16.9794H41.9361C41.9361 16.9794 42.7098 15.0451 42.8645 14.5808C43.3288 14.5808 47.739 14.5808 48.358 14.5808C48.5127 15.1224 48.8996 16.902 48.8996 16.902H52.9229L49.3638 1.19543ZM44.1025 11.3312C44.4893 10.4027 45.8047 6.92098 45.8047 6.92098C45.8047 6.99835 46.1915 5.99251 46.3463 5.45091L46.6558 6.84361C46.6558 6.84361 47.5069 10.6348 47.6616 11.4086H44.1025V11.3312Z" fill="#3362AB"/>
    <path d="M37.7592 11.7955C37.7592 15.0451 34.8191 17.2115 30.2541 17.2115C28.3198 17.2115 26.4629 16.8247 25.457 16.3605L26.076 12.8013L26.6176 13.0334C28.0103 13.6524 28.9388 13.8845 30.641 13.8845C31.8789 13.8845 33.1943 13.4203 33.1943 12.3371C33.1943 11.6407 32.6526 11.1765 30.9505 10.4028C29.3256 9.62907 27.1592 8.39111 27.1592 6.14732C27.1592 3.05243 30.1767 0.963379 34.4322 0.963379C36.057 0.963379 37.4497 1.27287 38.3008 1.65973L37.6818 5.06411L37.3724 4.75462C36.5986 4.44513 35.5928 4.13564 34.1227 4.13564C32.4979 4.21301 31.7242 4.90936 31.7242 5.52834C31.7242 6.22469 32.6526 6.7663 34.1227 7.46265C36.5986 8.62323 37.7592 9.93856 37.7592 11.7955Z" fill="#3362AB"/>
    <path d="M0 1.35026L0.0773722 1.04077H6.73138C7.65985 1.04077 8.3562 1.35026 8.58832 2.3561L10.0584 9.3196C8.58832 5.60573 5.18394 2.58822 0 1.35026Z" fill="#F9B50B"/>
    <path d="M19.4189 1.19554L12.6875 16.9021H8.12252L4.25391 3.74882C7.03931 5.52838 9.36047 8.31378 10.2116 10.2481L10.6758 11.8729L14.8539 1.11816H19.4189V1.19554Z" fill="#3362AB"/>
    <path d="M21.2003 1.11816H25.4558L22.7477 16.9021H18.4923L21.2003 1.11816Z" fill="#3362AB"/>
</svg>
