<svg width="31" height="29" viewBox="0 0 31 29" fill="none" xmlns="http://www.w3.org/2000/svg">
    <path d="M30.1968 11.8667C30.0421 10.9383 29.191 10.3193 28.0304 10.3193C27.6435 10.3193 27.334 10.3193 26.9472 10.3193C26.2508 10.2419 26.0961 10.4741 26.0961 11.0157C26.0961 13.7237 26.0961 16.3543 26.0961 19.0624C26.0961 20.4551 24.7034 21.9251 23.0786 22.2346C17.972 23.3952 12.8654 24.4784 7.75886 25.639C7.21725 25.7938 6.59828 25.7937 5.9793 25.7937C5.74719 25.7937 5.36033 25.639 5.28296 25.4069C5.20559 25.2521 5.4377 24.9427 5.59244 24.7879C5.82456 24.6332 6.13405 24.4784 6.44354 24.3237C7.37201 24.0142 8.37783 23.7047 9.3063 23.3952C13.0975 22.1573 16.8888 20.9193 20.68 19.604C22.3822 19.0624 23.3107 17.9018 23.3107 16.4317C23.3881 11.7894 23.3107 7.06967 23.3107 2.42733C23.3107 1.65361 22.9238 1.03464 22.0727 0.725147C21.0669 0.338286 20.1384 0.64777 19.2873 1.03463C13.8713 3.58791 8.53258 6.14121 3.11652 8.69449C1.56908 9.46821 0.640625 10.5514 0.640625 12.0989C0.640625 16.5091 0.640625 20.9193 0.640625 25.3295C0.640625 25.5616 0.640606 25.7938 0.717978 25.9485C1.25958 27.4186 2.6523 28.347 4.50924 28.347C8.30048 28.347 12.0917 28.347 15.8829 28.347C19.6742 28.347 23.3881 28.347 27.1793 28.347C28.0304 28.347 28.7267 28.1923 29.3457 27.6507C30.1194 27.0317 30.1194 26.1806 30.1194 25.4069C30.1194 21.074 30.1194 16.8186 30.1194 12.4857C30.2742 12.4084 30.2742 12.0989 30.1968 11.8667ZM14.4129 10.4741C14.7997 9.46821 15.6508 8.84923 16.8888 8.69449C17.7399 8.61712 18.4362 9.08135 18.591 9.85507C18.7457 11.0157 17.353 12.4084 15.8829 12.4084C14.7224 12.4084 14.026 11.5573 14.4129 10.4741Z" fill="#E47418"/>
</svg>
